HIERARCHY
ROOT Hips
{
	OFFSET 0.00 0.00 0.00
	CHANNELS 6 Xposition Yposition Zposition Xrotation Yrotation Zrotation
	JOINT Spine
	{
		OFFSET 0.00000 3.24121 0.00000
		CHANNELS 3 Xrotation Yrotation Zrotation
		JOINT Head
		{
			OFFSET 0.00000 18.38296 0.00000
			CHANNELS 3 Xrotation Yrotation Zrotation
			End Site
			{
				OFFSET 0.00000 4.52755 0.00000
			}
		}
		JOINT LeftShoulder
		{
			OFFSET 0.00000 12.82826 0.00000
			CHANNELS 3 Xrotation Yrotation Zrotation
			JOINT LeftArm
			{
				OFFSET 7.74805 0.00000 0.00000
				CHANNELS 3 Xrotation Yrotation Zrotation
				JOINT LeftForeArm
				{
					OFFSET 10.63561 0.00000 0.00000
					CHANNELS 3 Yrotation Zrotation Xrotation
					JOINT LeftHand
					{
						OFFSET 8.34675 0.00000 0.00000
						CHANNELS 3 Xrotation Yrotation Zrotation
						JOINT LeftHandThumb1
						{
							OFFSET 0.00000 0.00000 0.00000
							CHANNELS 3 Xrotation Zrotation Yrotation
							End Site
							{
								OFFSET 0.00000 0.00000 3.93700
							}
						}
						End Site
						{
							OFFSET 3.93700 0.00000 0.00000
						}
					}
				}
			}
		}
		JOINT RightShoulder
		{
			OFFSET 0.00000 12.82826 0.00000
			CHANNELS 3 Xrotation Yrotation Zrotation
			JOINT RightArm
			{
				OFFSET -7.74805 0.00000 0.00000
				CHANNELS 3 Xrotation Yrotation Zrotation
				JOINT RightForeArm
				{
					OFFSET -10.63561 0.00000 0.00000
					CHANNELS 3 Yrotation Zrotation Xrotation
					JOINT RightHand
					{
						OFFSET -8.34675 0.00000 0.00000
						CHANNELS 3 Xrotation Yrotation Zrotation
						JOINT RightHandThumb1
						{
							OFFSET 0.00000 0.00000 0.00000
							CHANNELS 3 Xrotation Zrotation Yrotation
							End Site
							{
								OFFSET 0.00000 0.00000 3.93700
							}
						}
						End Site
						{
							OFFSET -3.93700 0.00000 0.00000
						}
					}
				}
			}
		}
	}
	JOINT LeftUpLeg
	{
		OFFSET 3.43402 0.00000 0.00000
		CHANNELS 3 Xrotation Yrotation Zrotation
		JOINT LeftLeg
		{
			OFFSET 0.00000 -15.71302 0.00000
			CHANNELS 3 Xrotation Yrotation Zrotation
			JOINT LeftFoot
			{
				OFFSET 0.00000 -14.43512 0.00000
				CHANNELS 3 Xrotation Yrotation Zrotation
				JOINT LeftToeBase
				{
					OFFSET 0.00000 -1.27828 4.77061
					CHANNELS 3 Xrotation Yrotation Zrotation
					End Site
					{
						OFFSET 0.00000 0.00000 2.95275
					}
				}
			}
		}
	}
	JOINT RightUpLeg
	{
		OFFSET -3.43402 0.00000 0.00000
		CHANNELS 3 Xrotation Yrotation Zrotation
		JOINT RightLeg
		{
			OFFSET 0.00000 -15.71302 0.00000
			CHANNELS 3 Xrotation Yrotation Zrotation
			JOINT RightFoot
			{
				OFFSET 0.00000 -14.43512 0.00000
				CHANNELS 3 Xrotation Yrotation Zrotation
				JOINT RightToeBase
				{
					OFFSET 0.00000 -1.27828 4.77061
					CHANNELS 3 Xrotation Yrotation Zrotation
					End Site
					{
						OFFSET 0.00000 0.00000 2.95275
					}
				}
			}
		}
	}
}
MOTION
Frames: 9
Frame Time: 0.008333
 2.1981 32.6740 -4.4413 37.6361 -45.4215 8.1496 -29.4967 -28.6790 15.4636 8.8022 5.3459 -8.2685 29.8473 6.6760 26.5445 -109.9656 -43.3087 -124.9094 -31.0888 -0.0000 5.8646 -6.4818 -48.8106 -8.5854 33.1476 -0.0000 26.2537 44.5118 -16.4663 -13.6497 -58.2829 11.9782 84.8555 77.8216 0.0000 -32.5144 -1.8224 6.0335 16.8417 32.8623 0.0000 -24.3270 -35.0958 3.9788 10.7241 22.5552 -0.0000 -0.0000 -17.8299 7.3726 10.0169 4.5265 0.0000 0.0000 -156.5825 12.3228 -37.8389 128.1027 0.0000 0.0000 43.2750 -16.9030 21.7338 42.6241 -0.0000 0.0000
 2.2009 32.6811 -4.4406 37.8956 -45.7425 8.5319 -29.5762 -28.5953 15.4299 8.8359 5.6219 -8.1748 29.8391 6.7169 26.5660 -109.9011 -43.2952 -124.9064 -31.0782 -0.0000 5.8342 -6.4162 -48.8006 -8.5004 33.1476 -0.0000 26.2537 44.4840 -16.4487 -13.6624 -58.2704 12.0372 84.8758 77.8028 0.0000 -32.4536 -1.7893 5.9307 16.8225 32.8623 0.0000 -24.3270 -35.0648 4.1567 10.7038 22.3997 0.0000 -0.0000 -17.8086 7.6064 10.0489 4.6798 0.0000 -0.0000 -156.6380 12.2422 -37.6877 128.1123 0.0000 0.0000 43.2748 -16.8533 21.6828 42.7278 -0.0000 0.0000
 2.2010 32.6895 -4.4437 38.1429 -46.0277 8.8683 -29.6444 -28.5742 15.3949 8.8940 5.8909 -8.0436 29.8486 6.7723 26.6035 -109.8616 -43.2396 -124.9080 -30.9796 -0.0000 5.9305 -6.6255 -48.9822 -8.7519 33.1476 -0.0000 26.2537 44.4939 -16.4465 -13.6407 -58.3577 12.1754 84.9159 77.6321 0.0000 -32.5627 -1.8386 6.1103 16.7822 32.8623 0.0000 -24.3270 -35.0186 4.2275 10.6910 22.2272 -0.0000 -0.0000 -17.7178 7.7967 10.2643 5.0216 -0.0000 0.0000 -156.6660 12.1701 -37.5500 128.1358 0.0000 0.0000 43.2233 -16.8562 21.6164 42.7214 -0.0000 0.0000
 2.2021 32.6956 -4.4470 38.2697 -46.3455 9.1340 -29.6141 -28.5199 15.3621 8.9562 6.1458 -7.9152 29.8310 6.7958 26.5939 -109.8484 -43.2481 -124.8944 -30.8065 -0.0000 5.7255 -6.7385 -48.9534 -8.9039 33.1476 -0.0000 26.2537 44.4678 -16.3995 -13.6450 -58.4018 12.2462 84.9587 77.5409 0.0000 -32.4746 -1.8240 6.0467 16.8211 32.8623 0.0000 -24.3270 -34.8880 4.3955 10.6752 22.0396 -0.0000 0.0000 -17.6976 8.0383 10.3590 5.1883 0.0000 -0.0000 -156.6165 12.0816 -37.3848 128.1482 0.0000 -0.0000 43.2339 -16.8932 21.6359 42.6476 -0.0000 0.0000
 2.1968 32.7067 -4.4436 38.3673 -46.5748 9.2725 -29.5785 -28.5904 15.4081 9.0609 6.3844 -7.8357 29.8412 6.8082 26.5446 -109.8997 -43.3170 -124.9381 -30.6530 -0.0000 5.7078 -6.7148 -48.9823 -8.8690 33.1476 -0.0000 26.2537 44.4717 -16.3638 -13.6575 -58.4569 12.2815 84.9951 77.4497 0.0000 -32.3601 -1.8104 5.9873 16.8580 32.8623 0.0000 -24.3270 -34.7484 4.4510 10.7053 21.8472 -0.0000 0.0000 -17.6481 8.1587 10.6571 5.7739 0.0000 -0.0000 -156.4567 12.0615 -37.4203 128.2045 -0.0000 -0.0000 43.1232 -16.8829 21.7260 42.7674 -0.0000 -0.0000
 2.2036 32.7112 -4.4533 38.6817 -46.8847 9.7191 -29.6902 -28.4689 15.3107 9.0969 6.6472 -7.6028 29.8117 6.8371 26.5827 -109.9021 -43.3298 -124.9428 -30.5040 -0.0000 5.5976 -6.7695 -48.9790 -8.9413 33.1476 -0.0000 26.2537 44.4347 -16.3038 -13.6423 -58.5070 12.3033 85.0578 77.3674 0.0000 -32.1985 -1.7945 5.9147 16.9110 32.8623 0.0000 -24.3270 -34.7416 4.5400 10.6426 21.6617 0.0000 0.0000 -17.6147 8.4849 10.8591 5.4350 0.0000 -0.0000 -156.5368 11.9952 -37.0950 128.1867 0.0000 0.0000 43.1707 -16.9636 21.7913 42.6320 -0.0000 -0.0000
 2.2032 32.7183 -4.4596 38.8857 -47.1447 9.9912 -29.7250 -28.4318 15.2879 9.1576 6.8632 -7.4039 29.8232 6.8611 26.5683 -109.9452 -43.4067 -124.9563 -30.3850 -0.0000 5.5312 -6.7591 -48.9694 -8.9289 33.1476 -0.0000 26.2537 44.4278 -16.2321 -13.6380 -58.5590 12.2886 85.1063 77.2961 0.0000 -32.0406 -1.7781 5.8348 16.9809 32.8623 0.0000 -24.3270 -34.6888 4.6141 10.6542 21.4968 -0.0000 0.0000 -17.5624 8.6497 11.0112 5.4088 -0.0000 0.0000 -156.5069 11.9177 -36.9949 128.1966 -0.0000 0.0000 43.1605 -16.9809 21.6405 42.6333 0.0000 -0.0000
 2.2040 32.7265 -4.4697 39.1681 -47.4427 10.3020 -29.7739 -28.3628 15.3048 9.2012 7.0944 -7.1653 29.8591 6.9036 26.5438 -110.0144 -43.4745 -124.9684 -30.2279 -0.0000 5.3356 -6.8970 -49.0638 -9.0969 33.1476 -0.0000 26.2537 44.3525 -16.1562 -13.6441 -58.5740 12.3008 85.1834 77.1827 0.0000 -31.8662 -1.7752 5.8209 16.9925 32.8623 0.0000 -24.3270 -34.6929 4.6536 10.6984 21.3644 -0.0000 0.0000 -17.5368 8.9084 11.2352 5.3367 -0.0000 0.0000 -156.4637 11.8201 -36.8225 128.2060 -0.0000 -0.0000 43.1112 -16.9460 21.7547 42.6415 0.0000 -0.0000
 2.2023 32.7335 -4.4773 39.3896 -47.7176 10.5573 -29.7947 -28.3251 15.3245 9.2624 7.3103 -6.9562 29.8737 6.9327 26.5222 -109.9837 -43.5434 -124.9601 -30.1539 -0.0000 5.5442 -6.8540 -49.2235 -9.0193 33.1476 -0.0000 26.2537 44.2784 -16.0698 -13.6777 -58.5745 12.3283 85.2587 77.0850 0.0000 -31.7500 -1.7709 5.8084 16.9881 32.8623 0.0000 -24.3270 -34.6639 4.6799 10.7341 21.2442 -0.0000 -0.0000 -17.5005 9.1144 11.4670 5.3114 0.0000 -0.0000 -156.4187 11.7122 -36.7190 128.2128 -0.0000 -0.0000 43.1191 -16.8653 21.4669 42.5899 -0.0000 -0.0000
